HIERARCHY
ROOT Hips
{
	OFFSET 0.000000 103.266502 0.000000
	CHANNELS 6 Xposition Yposition Zposition Xrotation Yrotation Zrotation 
	JOINT Spine
	{
		OFFSET -0.002400 12.777504 0.315300
		CHANNELS 3 Xrotation Yrotation Zrotation
		JOINT Spine1
		{
			OFFSET -0.002067 5.816869 0.032633
			CHANNELS 3 Xrotation Yrotation Zrotation
			JOINT Spine1_split
			{
				OFFSET -0.002067 5.816869 0.032633
				CHANNELS 3 Xrotation Yrotation Zrotation
				JOINT Spine2
				{
					OFFSET -0.002067 5.816869 0.032633
					CHANNELS 3 Xrotation Yrotation Zrotation
					JOINT Neck
					{
						OFFSET -0.003700 21.199493 -0.826900
						CHANNELS 3 Xrotation Yrotation Zrotation
						JOINT Head
						{
							OFFSET 0.000000 20.442200 4.834800
							CHANNELS 3 Xrotation Yrotation Zrotation
							JOINT HeadTop_End
							{
								OFFSET 0.000000 34.668396 4.968400
								CHANNELS 3 Xrotation Yrotation Zrotation
								End Site
								{
									OFFSET 0.000000 0.000000 0.000000
								}
							}
						}
					}
					JOINT LeftShoulder
					{
						OFFSET 3.288150 8.794197 -1.372250
						CHANNELS 3 Xrotation Yrotation Zrotation
						JOINT LeftShoulder_split
						{
							OFFSET 3.288150 8.794197 -1.372250
							CHANNELS 3 Xrotation Yrotation Zrotation
							JOINT LeftArm
							{
								OFFSET 11.953299 -2.279007 -0.146200
								CHANNELS 3 Xrotation Yrotation Zrotation
								JOINT LeftForeArm
								{
									OFFSET 18.448900 0.000000 0.000000
									CHANNELS 3 Xrotation Yrotation Zrotation
									JOINT LeftHand
									{
										OFFSET 29.527798 0.000000 0.000000
										CHANNELS 3 Xrotation Yrotation Zrotation
										JOINT LeftHandThumb1
										{
											OFFSET 10.739754 -2.369614 9.225399
											CHANNELS 3 Xrotation Yrotation Zrotation
											JOINT LeftHandThumb2
											{
												OFFSET 4.926170 -2.844131 2.844125
												CHANNELS 3 Xrotation Yrotation Zrotation
												JOINT LeftHandThumb3
												{
													OFFSET 4.614891 -2.664413 2.664409
													CHANNELS 3 Xrotation Yrotation Zrotation
													JOINT LeftHandThumb4
													{
														OFFSET 4.432465 -2.559082 2.559083
														CHANNELS 3 Xrotation Yrotation Zrotation
														End Site
														{
															OFFSET 0.000000 0.000000 0.000000
														}
													}
												}
											}
										}
										JOINT LeftHandIndex1
										{
											OFFSET 26.467674 0.187653 6.405298
											CHANNELS 3 Xrotation Yrotation Zrotation
											JOINT LeftHandIndex2
											{
												OFFSET 8.792900 0.000000 0.000000
												CHANNELS 3 Xrotation Yrotation Zrotation
												JOINT LeftHandIndex3
												{
													OFFSET 10.075203 0.000000 0.000000
													CHANNELS 3 Xrotation Yrotation Zrotation
													End Site
													{
														OFFSET 0.000000 0.000000 0.000000
													}
												}
											}
										}
										JOINT LeftHandMiddle1
										{
											OFFSET 25.764404 0.000000 0.000000
											CHANNELS 3 Xrotation Yrotation Zrotation
											JOINT LeftHandMiddle2
											{
												OFFSET 9.393974 0.000000 0.000000
												CHANNELS 3 Xrotation Yrotation Zrotation
												JOINT LeftHandMiddle3
												{
													OFFSET 10.771950 0.000000 0.000000
													CHANNELS 3 Xrotation Yrotation Zrotation
													End Site
													{
														OFFSET 0.000000 0.000000 0.000000
													}
												}
											}
										}
										JOINT LeftHandRing1
										{
											OFFSET 24.660927 0.144547 -6.225808
											CHANNELS 3 Xrotation Yrotation Zrotation
											JOINT LeftHandRing2
											{
												OFFSET 9.393799 0.000000 0.000000
												CHANNELS 3 Xrotation Yrotation Zrotation
												JOINT LeftHandRing3
												{
													OFFSET 9.928497 0.000000 0.000000
													CHANNELS 3 Xrotation Yrotation Zrotation
													End Site
													{
														OFFSET 0.000000 0.000000 0.000000
													}
												}
											}
										}
										JOINT LeftHandPinky1
										{
											OFFSET 23.655350 0.125290 -12.815412
											CHANNELS 3 Xrotation Yrotation Zrotation
											JOINT LeftHandPinky2
											{
												OFFSET 8.425102 0.000000 0.000000
												CHANNELS 3 Xrotation Yrotation Zrotation
												JOINT LeftHandPinky3
												{
													OFFSET 8.147003 0.000000 0.000000
													CHANNELS 3 Xrotation Yrotation Zrotation
													End Site
													{
														OFFSET 0.000000 0.000000 0.000000
													}
												}
											}
										}
									}
								}
							}
						}
					}
					JOINT RightShoulder
					{
						OFFSET -3.249400 8.794197 -1.372250
						CHANNELS 3 Xrotation Yrotation Zrotation
						JOINT RightShoulder_split
						{
							OFFSET -3.249400 8.794197 -1.372250
							CHANNELS 3 Xrotation Yrotation Zrotation
							JOINT RightArm
							{
								OFFSET -11.953299 -2.279007 -0.146200
								CHANNELS 3 Xrotation Yrotation Zrotation
								JOINT RightForeArm
								{
									OFFSET -18.448900 0.000000 0.000000
									CHANNELS 3 Xrotation Yrotation Zrotation
									JOINT RightHand
									{
										OFFSET -29.527802 0.000000 0.000000
										CHANNELS 3 Xrotation Yrotation Zrotation
										JOINT RightHandThumb1
										{
											OFFSET -10.739754 -2.369614 9.225399
											CHANNELS 3 Xrotation Yrotation Zrotation
											JOINT RightHandThumb2
											{
												OFFSET -4.926170 -2.844131 2.844125
												CHANNELS 3 Xrotation Yrotation Zrotation
												JOINT RightHandThumb3
												{
													OFFSET -4.614891 -2.664413 2.664409
													CHANNELS 3 Xrotation Yrotation Zrotation
													JOINT RightHandThumb4
													{
														OFFSET -4.432465 -2.559082 2.559083
														CHANNELS 3 Xrotation Yrotation Zrotation
														End Site
														{
															OFFSET 0.000000 0.000000 0.000000
														}
													}
												}
											}
										}
										JOINT RightHandIndex1
										{
											OFFSET -26.467674 0.187653 6.405298
											CHANNELS 3 Xrotation Yrotation Zrotation
											JOINT RightHandIndex2
											{
												OFFSET -8.792900 0.000000 0.000000
												CHANNELS 3 Xrotation Yrotation Zrotation
												JOINT RightHandIndex3
												{
													OFFSET -10.075203 0.000000 0.000000
													CHANNELS 3 Xrotation Yrotation Zrotation
													End Site
													{
														OFFSET 0.000000 0.000000 0.000000
													}
												}
											}
										}
										JOINT RightHandMiddle1
										{
											OFFSET -25.764404 0.000000 0.000000
											CHANNELS 3 Xrotation Yrotation Zrotation
											JOINT RightHandMiddle2
											{
												OFFSET -9.393974 0.000000 0.000000
												CHANNELS 3 Xrotation Yrotation Zrotation
												JOINT RightHandMiddle3
												{
													OFFSET -10.771950 0.000000 0.000000
													CHANNELS 3 Xrotation Yrotation Zrotation
													End Site
													{
														OFFSET 0.000000 0.000000 0.000000
													}
												}
											}
										}
										JOINT RightHandRing1
										{
											OFFSET -24.660927 0.144547 -6.225808
											CHANNELS 3 Xrotation Yrotation Zrotation
											JOINT RightHandRing2
											{
												OFFSET -9.393799 0.000000 0.000000
												CHANNELS 3 Xrotation Yrotation Zrotation
												JOINT RightHandRing3
												{
													OFFSET -9.928497 0.000000 0.000000
													CHANNELS 3 Xrotation Yrotation Zrotation
													End Site
													{
														OFFSET 0.000000 0.000000 0.000000
													}
												}
											}
										}
										JOINT RightHandPinky1
										{
											OFFSET -23.655350 0.125290 -12.815412
											CHANNELS 3 Xrotation Yrotation Zrotation
											JOINT RightHandPinky2
											{
												OFFSET -8.425102 0.000000 0.000000
												CHANNELS 3 Xrotation Yrotation Zrotation
												JOINT RightHandPinky3
												{
													OFFSET -8.147003 0.000000 0.000000
													CHANNELS 3 Xrotation Yrotation Zrotation
													End Site
													{
														OFFSET 0.000000 0.000000 0.000000
													}
												}
											}
										}
									}
								}
							}
						}
					}
				}
			}
		}
	}
	JOINT LeftUpLeg
	{
		OFFSET 11.394100 -6.187798 -0.413800
		CHANNELS 3 Xrotation Yrotation Zrotation
		JOINT LeftLeg
		{
			OFFSET 0.430247 -32.302673 3.732800
			CHANNELS 3 Xrotation Yrotation Zrotation
			JOINT LeftFoot
			{
				OFFSET -0.430247 -48.264931 -6.423300
				CHANNELS 3 Xrotation Yrotation Zrotation
				JOINT LeftToeBase
				{
					OFFSET 4.230900 -16.068199 23.438400
					CHANNELS 3 Xrotation Yrotation Zrotation
					JOINT LeftToe_End
					{
						OFFSET 4.510700 0.695400 19.974600
						CHANNELS 3 Xrotation Yrotation Zrotation
						End Site
						{
							OFFSET 0.000000 0.000000 0.000000
						}
					}
				}
			}
		}
	}
	JOINT RightUpLeg
	{
		OFFSET -11.333700 -6.187798 -0.413800
		CHANNELS 3 Xrotation Yrotation Zrotation
		JOINT RightLeg
		{
			OFFSET -0.430392 -32.302628 3.733000
			CHANNELS 3 Xrotation Yrotation Zrotation
			JOINT RightFoot
			{
				OFFSET 0.430392 -48.264973 -6.423500
				CHANNELS 3 Xrotation Yrotation Zrotation
				JOINT RightToeBase
				{
					OFFSET -4.230900 -16.068199 23.438400
					CHANNELS 3 Xrotation Yrotation Zrotation
					JOINT RightToe_End
					{
						OFFSET -4.510700 0.695400 19.974600
						CHANNELS 3 Xrotation Yrotation Zrotation
						End Site
						{
							OFFSET 0.000000 0.000000 0.000000
						}
					}
				}
			}
		}
	}
}
MOTION
Frames: 5
Frame Time: 0.016667
-0.661412 98.778015 0.075507 -19.792418 -82.301799 -21.114113 2.270767 0.115994 0.177129 4.588851 0.048045 1.587649 0.000000 0.000000 0.000000 4.566498 0.058995 1.631778 -6.449451 9.163150 -4.228991 1.306331 37.856658 -3.127863 0.000000 0.000001 0.000000 -0.232473 4.637865 -1.359674 0.000000 0.000000 0.000000 25.122191 -77.231237 -42.206297 -0.000006 -14.145792 -0.000001 -51.489866 1.622344 10.545754 -3.708765 -5.344626 -9.285591 10.685378 16.536450 0.020105 2.736437 5.880170 2.697148 -0.000001 0.000000 0.000000 0.013961 0.439244 -3.642316 0.025870 0.597760 -4.959534 -0.000001 -0.000001 0.000001 0.013842 0.437326 -3.626326 0.026051 0.599678 -4.975532 0.000000 -0.000002 -0.000000 0.013961 0.439245 -3.642314 0.025875 0.597761 -4.959536 0.000001 -0.000000 0.000001 0.254037 4.486458 -3.142205 0.013177 -3.456766 -5.468413 -0.000001 0.000000 0.000000 1.612993 4.329179 7.043631 0.000000 0.000000 0.000000 8.595133 25.593752 60.579523 -0.000001 32.803664 0.000004 -7.794400 -23.342744 -5.537468 37.238038 11.415883 9.503662 21.038878 -27.717299 1.484825 6.453887 -9.653870 -2.759925 0.000000 -0.000000 0.000000 2.191291 -5.070362 46.723524 2.298129 -5.168477 47.920768 -0.000000 0.000002 0.000001 2.191278 -5.070352 46.723507 2.298120 -5.168480 47.920785 -0.000001 -0.000000 0.000000 2.191293 -5.070359 46.723528 2.298128 -5.168478 47.920771 -0.000000 -0.000002 0.000001 2.191297 -5.070364 46.723524 2.298124 -5.168478 47.920771 -0.000001 0.000002 0.000000 -19.517744 14.491968 9.797185 27.120026 -2.833531 4.839549 -6.162189 0.945408 -6.801611 -0.000046 -0.000003 -0.000000 -0.000000 0.000000 -0.000000 -14.361091 -23.201394 -8.281732 22.733180 8.616783 -8.693116 -6.798674 -1.114618 10.349068 -0.001927 0.000011 -0.000002 0.000000 0.000000 0.000000 
-0.667161 98.785553 0.071456 -19.909346 -82.292824 -21.226799 2.265942 0.106618 0.179066 4.580604 0.031468 1.605108 0.000000 0.000000 0.000000 4.558149 0.042188 1.649045 -6.406089 9.181283 -4.285428 1.307514 37.876766 -3.128333 0.000001 0.000001 -0.000000 -0.234246 4.680283 -1.477822 0.000000 0.000000 0.000000 26.581583 -77.401964 -40.727547 0.000009 -14.148544 0.000005 -51.846484 1.696112 10.532954 -3.708764 -5.344629 -9.285590 10.685378 16.536448 0.020105 2.736435 5.880171 2.697149 -0.000002 0.000001 0.000000 0.013962 0.439245 -3.642317 0.025875 0.597758 -4.959535 0.000001 0.000001 -0.000000 0.013840 0.437326 -3.626322 0.026052 0.599680 -4.975535 0.000000 -0.000000 0.000000 0.013961 0.439246 -3.642315 0.025873 0.597760 -4.959536 -0.000001 0.000001 0.000000 0.254037 4.486458 -3.142205 0.013177 -3.456764 -5.468413 0.000001 0.000001 -0.000000 1.618817 4.365932 6.951334 0.000000 0.000000 0.000000 8.569721 25.644854 60.639171 0.000008 32.733934 -0.000023 -7.806367 -23.236725 -5.557159 37.238191 11.416000 9.503712 21.038958 -27.717377 1.484852 6.453919 -9.653909 -2.759927 0.000000 0.000001 -0.000000 2.191283 -5.070375 46.723514 2.298122 -5.168467 47.920771 0.000000 0.000004 0.000000 2.191278 -5.070356 46.723507 2.298116 -5.168481 47.920792 -0.000001 0.000002 0.000001 2.191278 -5.070373 46.723514 2.298124 -5.168466 47.920771 0.000000 -0.000003 -0.000001 2.191286 -5.070377 46.723514 2.298125 -5.168466 47.920771 0.000000 0.000000 -0.000000 -19.478692 14.506499 9.781826 27.086886 -2.834177 4.852164 -6.149914 0.947182 -6.804465 -0.000010 -0.000002 -0.000002 0.000000 -0.000002 0.000000 -14.317495 -23.216163 -8.276956 22.700921 8.626748 -8.694482 -6.792706 -1.115575 10.349516 -0.001956 -0.000017 0.000001 -0.000000 0.000000 0.000000 
-0.673254 98.793427 0.067542 -20.024723 -82.283494 -21.343064 2.259166 0.094593 0.185843 4.568351 0.010020 1.625759 0.000000 0.000000 0.000000 4.545687 0.020625 1.669543 -6.358687 9.200897 -4.344189 1.308285 37.902547 -3.127765 0.000000 -0.000003 0.000000 -0.236516 4.731573 -1.616344 0.000000 0.000000 0.000000 28.225022 -77.569086 -39.068163 -0.000006 -14.159482 -0.000002 -52.203218 1.758395 10.523186 -3.708763 -5.344632 -9.285593 10.685378 16.536446 0.020105 2.736435 5.880171 2.697149 -0.000002 0.000001 0.000001 0.013962 0.439242 -3.642316 0.025877 0.597761 -4.959535 0.000001 0.000001 0.000000 0.013843 0.437324 -3.626321 0.026053 0.599682 -4.975534 -0.000002 -0.000001 0.000000 0.013963 0.439243 -3.642315 0.025873 0.597762 -4.959535 0.000001 0.000001 0.000000 0.254039 4.486457 -3.142205 0.013180 -3.456765 -5.468413 -0.000002 0.000001 0.000000 1.625859 4.410177 6.848792 0.000000 0.000000 0.000000 8.546703 25.709174 60.700984 -0.000002 32.649670 -0.000005 -7.850784 -23.139288 -5.600551 37.238376 11.416118 9.503760 21.039032 -27.717471 1.484845 6.453945 -9.653958 -2.759958 -0.000001 -0.000002 0.000000 2.191291 -5.070358 46.723504 2.298126 -5.168474 47.920771 -0.000001 0.000001 0.000000 2.191282 -5.070351 46.723504 2.298107 -5.168471 47.920778 0.000000 -0.000006 -0.000001 2.191290 -5.070358 46.723504 2.298124 -5.168474 47.920768 -0.000000 -0.000000 -0.000001 2.191293 -5.070361 46.723500 2.298125 -5.168472 47.920775 -0.000000 0.000003 0.000001 -19.438379 14.506340 9.774694 27.055353 -2.830806 4.857545 -6.140255 0.948323 -6.808742 -0.000049 0.000034 -0.000008 0.000000 0.000000 -0.000000 -14.267387 -23.224544 -8.268480 22.662931 8.630595 -8.686674 -6.784939 -1.116218 10.347527 -0.001973 -0.000000 0.000002 0.000000 -0.000000 0.000000 
-0.679155 98.801682 0.064106 -20.129218 -82.272600 -21.453112 2.251348 0.080772 0.198023 4.553621 -0.015317 1.649033 0.000000 0.000000 0.000000 4.530655 -0.004746 1.692758 -6.309808 9.221823 -4.404453 1.308202 37.933307 -3.125743 0.000000 0.000001 -0.000000 -0.239163 4.791721 -1.775041 0.000000 0.000000 0.000000 30.042573 -77.727170 -37.237283 0.000004 -14.178586 0.000006 -52.563746 1.800037 10.528895 -3.708763 -5.344629 -9.285588 10.685382 16.536453 0.020104 2.736441 5.880171 2.697149 -0.000001 0.000000 -0.000001 0.013961 0.439244 -3.642316 0.025872 0.597758 -4.959534 0.000000 -0.000000 0.000001 0.013842 0.437324 -3.626325 0.026051 0.599680 -4.975533 0.000000 -0.000000 0.000000 0.013960 0.439246 -3.642315 0.025873 0.597761 -4.959536 0.000002 0.000000 0.000000 0.254041 4.486458 -3.142205 0.013180 -3.456764 -5.468414 0.000002 0.000001 0.000000 1.633872 4.460066 6.738923 0.000000 0.000000 0.000000 8.526318 25.781063 60.764792 0.000002 32.555263 -0.000010 -7.926601 -23.053092 -5.669078 37.238533 11.416242 9.503792 21.039126 -27.717550 1.484868 6.453999 -9.654002 -2.759932 -0.000001 -0.000001 0.000000 2.191270 -5.070346 46.723480 2.298127 -5.168483 47.920778 0.000000 -0.000003 -0.000000 2.191269 -5.070344 46.723483 2.298122 -5.168483 47.920781 -0.000000 -0.000000 0.000001 2.191267 -5.070344 46.723483 2.298128 -5.168486 47.920778 -0.000000 -0.000001 -0.000000 2.191269 -5.070350 46.723480 2.298127 -5.168486 47.920778 -0.000000 0.000003 0.000000 -19.397937 14.491845 9.773103 27.025045 -2.824013 4.857969 -6.132344 0.948762 -6.814431 0.000001 0.000012 0.000003 -0.000000 0.000000 -0.000000 -14.211898 -23.228034 -8.257861 22.618607 8.628775 -8.669218 -6.774836 -1.116655 10.343174 -0.002002 -0.000011 -0.000003 0.000000 -0.000000 -0.000000 
-0.683690 98.810097 0.061042 -20.210011 -82.259424 -21.542779 2.243730 0.066129 0.215669 4.538630 -0.042548 1.674178 0.000000 0.000000 0.000000 4.515267 -0.031856 1.717975 -6.262549 9.243670 -4.465037 1.306198 37.967768 -3.122502 0.000000 -0.000001 -0.000000 -0.241921 4.857623 -1.946194 0.000000 0.000000 0.000000 31.985960 -77.874040 -35.281414 -0.000004 -14.201004 0.000010 -52.937040 1.809552 10.559735 -3.708765 -5.344628 -9.285590 10.685376 16.536446 0.020104 2.736440 5.880171 2.697149 -0.000003 -0.000000 0.000000 0.013962 0.439243 -3.642314 0.025870 0.597758 -4.959535 -0.000002 -0.000001 0.000000 0.013842 0.437323 -3.626322 0.026052 0.599682 -4.975534 -0.000002 -0.000000 -0.000001 0.013961 0.439245 -3.642312 0.025873 0.597762 -4.959536 -0.000001 -0.000000 0.000001 0.254039 4.486459 -3.142205 0.013175 -3.456765 -5.468416 0.000001 0.000001 0.000000 1.642505 4.513231 6.629211 0.000000 0.000000 0.000000 8.509101 25.847488 60.828463 0.000004 32.462178 0.000006 -8.022600 -22.982040 -5.759608 37.238707 11.416348 9.503856 21.039191 -27.717642 1.484856 6.454022 -9.654046 -2.759948 -0.000002 -0.000005 0.000001 2.191279 -5.070358 46.723480 2.298127 -5.168489 47.920751 0.000000 0.000001 -0.000000 2.191269 -5.070358 46.723483 2.298121 -5.168481 47.920754 0.000001 -0.000001 -0.000000 2.191277 -5.070355 46.723477 2.298127 -5.168487 47.920744 -0.000001 -0.000002 0.000000 2.191280 -5.070360 46.723477 2.298126 -5.168488 47.920747 -0.000001 -0.000001 -0.000000 -19.359522 14.463602 9.772619 26.995216 -2.812540 4.856818 -6.124197 0.948570 -6.821828 -0.000026 0.000015 0.000000 -0.000000 -0.000002 -0.000000 -14.155459 -23.229504 -8.246537 22.570381 8.622738 -8.645124 -6.762560 -1.117200 10.337262 -0.002027 -0.000001 -0.000002 -0.000000 0.000001 0.000000 
